<?xml version="1.0" encoding="utf-8"?>
<!-- Generator: Adobe Illustrator 15.0.0, SVG Export Plug-In . SVG Version: 6.00 Build 0)  -->
<!DOCTYPE svg PUBLIC "-//W3C//DTD SVG 1.1//EN" "http://www.w3.org/Graphics/SVG/1.1/DTD/svg11.dtd">
<svg version="1.1" id="Layer_1" xmlns="http://www.w3.org/2000/svg" xmlns:xlink="http://www.w3.org/1999/xlink" x="0px" y="0px"
	 width="26px" height="26px" viewBox="0 0 26 26" enable-background="new 0 0 26 26" xml:space="preserve">
<rect fill="none" width="26" height="26"/>
<g>
	<path fill="#000000" d="M10.477,1.965c-0.289-0.121-0.625-0.053-0.848,0.168L0.32,9.446c-0.304,0.302-0.304,0.797,0,1.1
		l9.309,7.278c0.148,0.15,0.348,0.229,0.549,0.229c0.102,0,0.203-0.021,0.299-0.059c0.291-0.121,0.465-0.404,0.465-0.719v-4.359
		c9.955,0,14.309,2.808,13.646,11.751c4.217-14.308-3.877-17.542-13.646-17.542V2.683C10.941,2.368,10.768,2.085,10.477,1.965z"/>
</g>
</svg>
