<?xml version="1.0" encoding="utf-8"?>
<!-- Generator: Adobe Illustrator 17.0.0, SVG Export Plug-In . SVG Version: 6.00 Build 0)  -->
<!DOCTYPE svg PUBLIC "-//W3C//DTD SVG 1.1//EN" "http://www.w3.org/Graphics/SVG/1.1/DTD/svg11.dtd">
<svg version="1.1" id="Layer_1" xmlns="http://www.w3.org/2000/svg" xmlns:xlink="http://www.w3.org/1999/xlink" x="0px" y="0px"
	 width="253px" height="253px" viewBox="0 0 253 253" enable-background="new 0 0 253 253" xml:space="preserve">
<g>
	<g>
		<circle fill="#074E68" cx="126" cy="126.636" r="126"/>
		<g opacity="0.5" enable-background="new    ">
			<g>
				<defs>
					<circle id="SVGID_1_" cx="126.656" cy="126.364" r="126"/>
				</defs>
				<clipPath id="SVGID_2_">
					<use xlink:href="#SVGID_1_"  overflow="visible"/>
				</clipPath>
				<g clip-path="url(#SVGID_2_)">
					<g>
						
							<line fill="none" stroke="#FFFFFF" stroke-width="0.5" stroke-miterlimit="10" x1="220.855" y1="344.944" x2="220.855" y2="-77.617"/>
						
							<line fill="none" stroke="#FFFFFF" stroke-width="0.5" stroke-miterlimit="10" x1="203.764" y1="344.944" x2="203.764" y2="-77.617"/>
						
							<line fill="none" stroke="#FFFFFF" stroke-width="0.5" stroke-miterlimit="10" x1="237.946" y1="344.518" x2="237.946" y2="-78.043"/>
						
							<line fill="none" stroke="#FFFFFF" stroke-width="0.5" stroke-miterlimit="10" x1="255.037" y1="344.944" x2="255.037" y2="-77.617"/>
						
							<line fill="none" stroke="#FFFFFF" stroke-width="0.5" stroke-miterlimit="10" x1="152.491" y1="344.944" x2="152.491" y2="-77.617"/>
						
							<line fill="none" stroke="#FFFFFF" stroke-width="0.5" stroke-miterlimit="10" x1="135.4" y1="344.944" x2="135.4" y2="-77.617"/>
						
							<line fill="none" stroke="#FFFFFF" stroke-width="0.5" stroke-miterlimit="10" x1="169.582" y1="344.518" x2="169.582" y2="-78.043"/>
						
							<line fill="none" stroke="#FFFFFF" stroke-width="0.5" stroke-miterlimit="10" x1="186.673" y1="344.944" x2="186.673" y2="-77.617"/>
						
							<line fill="none" stroke="#FFFFFF" stroke-width="0.5" stroke-miterlimit="10" x1="84.485" y1="345.156" x2="84.485" y2="-77.404"/>
						
							<line fill="none" stroke="#FFFFFF" stroke-width="0.5" stroke-miterlimit="10" x1="67.394" y1="346.823" x2="67.394" y2="-75.738"/>
						
							<line fill="none" stroke="#FFFFFF" stroke-width="0.5" stroke-miterlimit="10" x1="101.576" y1="344.731" x2="101.576" y2="-77.83"/>
						
							<line fill="none" stroke="#FFFFFF" stroke-width="0.5" stroke-miterlimit="10" x1="118.667" y1="345.156" x2="118.667" y2="-77.404"/>
						
							<line fill="none" stroke="#FFFFFF" stroke-width="0.5" stroke-miterlimit="10" x1="16.121" y1="345.156" x2="16.121" y2="-77.404"/>
						
							<line fill="none" stroke="#FFFFFF" stroke-width="0.5" stroke-miterlimit="10" x1="-0.97" y1="345.156" x2="-0.97" y2="-77.404"/>
						
							<line fill="none" stroke="#FFFFFF" stroke-width="0.5" stroke-miterlimit="10" x1="33.212" y1="344.731" x2="33.212" y2="-77.83"/>
						
							<line fill="none" stroke="#FFFFFF" stroke-width="0.5" stroke-miterlimit="10" x1="50.303" y1="345.156" x2="50.303" y2="-77.404"/>
					</g>
					<g>
						
							<line fill="none" stroke="#FFFFFF" stroke-width="0.5" stroke-miterlimit="10" x1="-75.987" y1="220.077" x2="346.574" y2="220.077"/>
						
							<line fill="none" stroke="#FFFFFF" stroke-width="0.5" stroke-miterlimit="10" x1="-75.987" y1="202.986" x2="346.574" y2="202.986"/>
						
							<line fill="none" stroke="#FFFFFF" stroke-width="0.5" stroke-miterlimit="10" x1="-75.561" y1="237.168" x2="347" y2="237.168"/>
						
							<line fill="none" stroke="#FFFFFF" stroke-width="0.5" stroke-miterlimit="10" x1="-75.987" y1="254.259" x2="346.574" y2="254.259"/>
						
							<line fill="none" stroke="#FFFFFF" stroke-width="0.5" stroke-miterlimit="10" x1="-75.987" y1="151.713" x2="346.574" y2="151.713"/>
						
							<line fill="none" stroke="#FFFFFF" stroke-width="0.5" stroke-miterlimit="10" x1="-75.987" y1="134.622" x2="346.574" y2="134.622"/>
						
							<line fill="none" stroke="#FFFFFF" stroke-width="0.5" stroke-miterlimit="10" x1="-75.561" y1="168.804" x2="347" y2="168.804"/>
						
							<line fill="none" stroke="#FFFFFF" stroke-width="0.5" stroke-miterlimit="10" x1="-75.987" y1="185.895" x2="346.574" y2="185.895"/>
						
							<line fill="none" stroke="#FFFFFF" stroke-width="0.5" stroke-miterlimit="10" x1="-76.2" y1="83.707" x2="346.361" y2="83.707"/>
						
							<line fill="none" stroke="#FFFFFF" stroke-width="0.5" stroke-miterlimit="10" x1="-76.2" y1="66.617" x2="346.361" y2="66.617"/>
						
							<line fill="none" stroke="#FFFFFF" stroke-width="0.5" stroke-miterlimit="10" x1="-75.774" y1="100.798" x2="346.787" y2="100.798"/>
						
							<line fill="none" stroke="#FFFFFF" stroke-width="0.5" stroke-miterlimit="10" x1="-76.2" y1="117.889" x2="346.361" y2="117.889"/>
						
							<line fill="none" stroke="#FFFFFF" stroke-width="0.5" stroke-miterlimit="10" x1="-76.2" y1="15.344" x2="346.361" y2="15.344"/>
						
							<line fill="none" stroke="#FFFFFF" stroke-width="0.5" stroke-miterlimit="10" x1="-76.2" y1="-1.747" x2="346.361" y2="-1.747"/>
						
							<line fill="none" stroke="#FFFFFF" stroke-width="0.5" stroke-miterlimit="10" x1="-75.774" y1="32.435" x2="346.787" y2="32.435"/>
						
							<line fill="none" stroke="#FFFFFF" stroke-width="0.5" stroke-miterlimit="10" x1="-76.2" y1="49.526" x2="346.361" y2="49.526"/>
					</g>
				</g>
			</g>
		</g>
	</g>
</g>
<g>
	
		<rect x="81.833" y="70.916" fill="none" stroke="#FFFFFF" stroke-width="3" stroke-miterlimit="10" width="67.748" height="100.888"/>
</g>
<g>
	<line fill="none" stroke="#FFFFFF" stroke-miterlimit="10" x1="189.5" y1="171.804" x2="189.5" y2="88.413"/>
	<polygon fill="#FFFFFF" points="189.5,173.262 186.583,170.345 192.417,170.345 	"/>
	<polygon fill="#FFFFFF" points="189.5,86.954 192.417,89.871 186.583,89.871 	"/>
</g>
<g>
	<line fill="none" stroke="#FFFFFF" stroke-miterlimit="10" x1="154.813" y1="187.804" x2="82.833" y2="187.804"/>
	<polygon fill="#FFFFFF" points="157.007,187.804 154.09,190.721 154.09,184.887 	"/>
	<polygon fill="#FFFFFF" points="81.833,187.804 84.75,184.887 84.75,190.721 	"/>
</g>
<polyline fill="none" stroke="#FFFFFF" stroke-width="3" stroke-miterlimit="10" points="81.671,177.804 155.5,177.804 
	155.5,70.873 "/>
<line fill="none" stroke="#FFFFFF" stroke-width="3" stroke-miterlimit="10" x1="75.5" y1="84.283" x2="87.671" y2="84.283"/>
<line fill="none" stroke="#FFFFFF" stroke-width="3" stroke-miterlimit="10" x1="75.5" y1="92.962" x2="87.671" y2="92.962"/>
<line fill="none" stroke="#FFFFFF" stroke-width="3" stroke-miterlimit="10" x1="75.5" y1="118.999" x2="87.671" y2="118.999"/>
<line fill="none" stroke="#FFFFFF" stroke-width="3" stroke-miterlimit="10" x1="75.5" y1="127.678" x2="87.671" y2="127.678"/>
<line fill="none" stroke="#FFFFFF" stroke-width="3" stroke-miterlimit="10" x1="75.5" y1="153.715" x2="87.671" y2="153.715"/>
<line fill="none" stroke="#FFFFFF" stroke-width="3" stroke-miterlimit="10" x1="75.5" y1="162.393" x2="87.671" y2="162.393"/>
<line fill="none" stroke="#FFFFFF" stroke-width="3" stroke-miterlimit="10" x1="75.5" y1="101.641" x2="87.671" y2="101.641"/>
<line fill="none" stroke="#FFFFFF" stroke-width="3" stroke-miterlimit="10" x1="75.5" y1="110.32" x2="87.671" y2="110.32"/>
<line fill="none" stroke="#FFFFFF" stroke-width="3" stroke-miterlimit="10" x1="75.5" y1="136.357" x2="87.671" y2="136.357"/>
<line fill="none" stroke="#FFFFFF" stroke-width="3" stroke-miterlimit="10" x1="75.5" y1="145.036" x2="87.671" y2="145.036"/>
<g>
	<path fill="#FFFFFF" d="M104.622,122.478v-17.282h12.229v3.239h-8.55v3.627h8.369v3.239h-8.369v7.177H104.622z"/>
	<path fill="#FFFFFF" d="M118.973,120.198l2.047-2.565c1.166,1.218,2.772,1.892,4.586,1.892c2.047,0,3.213-1.166,3.213-2.565
		c0-1.529-1.14-2.565-3.109-2.565c-1.425,0-2.591,0.414-3.627,1.399l-2.565-0.7v-9.897h11.867v3.239h-8.187v4.223
		c0.829-0.829,2.229-1.451,3.809-1.451c2.928,0,5.545,2.099,5.545,5.596c0,3.653-2.747,5.985-6.918,5.985
		C122.626,122.789,120.45,121.804,118.973,120.198z"/>
</g>
<g>
	<polygon fill="none" stroke="#FFFFFF" stroke-width="3" stroke-miterlimit="10" points="179.826,171.804 169.174,171.804 
		169.174,103.798 174.5,90.682 179.826,103.798 	"/>
	
		<line fill="none" stroke="#FFFFFF" stroke-width="3" stroke-miterlimit="10" x1="169.174" y1="161.489" x2="179.826" y2="161.489"/>
	
		<line fill="none" stroke="#FFFFFF" stroke-width="3" stroke-miterlimit="10" x1="169.507" y1="105.196" x2="180.159" y2="105.196"/>
	<line fill="none" stroke="#FFFFFF" stroke-width="3" stroke-miterlimit="10" x1="169.174" y1="155.25" x2="179.826" y2="155.25"/>
</g>
</svg>
